# xmcd
#
# Track frame offsets: 
#        150
#        15405
#        40175
#        59235
#        72567
#        86730
#        103907
#        123982
#        141685
#        157767
#
# Disc length: 2215 seconds
#
# Revision: 4
# Processed by: cddbd v1.5.2PL0 Copyright (c) Steve Scherf et al.
# Submitted via: ExactAudioCopy v1.3
#
DISCID=9108a50a
DTITLE=Elis Regina - Elis (1974)
DYEAR=1974
DGENRE=MPB
TTITLE0=Na Batucada Da Vida
TTITLE1=Travessia
TTITLE2=Conversando No Bar
TTITLE3=Ponta De Areia
TTITLE4=O Mestre-Sala Dos Mares
TTITLE5=Amor Até O Fim
TTITLE6=Dois Pra Lá, Dois Pra Cá
TTITLE7=Maria Rosa
TTITLE8=Caça À Raposa
TTITLE9=O Compositor Me Disse
EXTD=
EXTT0=(Ary Barroso-Luiz Peixoto)
EXTT1=(Milton Nascimento-Fernando Brant)
EXTT2=(Milton Nascimento-Fernando Brant)
EXTT3=(Milton Nascimento-Fernando Brant)
EXTT4=(Jo o Bosco-Aldir Blanco)
EXTT5=(Gilberto Gil)
EXTT6=(Jo o Bosco-Aldir Blanco)
EXTT7=(Lupicinio Rodrigues-Alcides Gon alves)
EXTT8=(Jo o Bosco-Aldir Blanco)
EXTT9=(Gilberto Gil)
PLAYORDER=
